# File created by Blade
# Date/Time:  Wed Jan 21 15:55:51 2015
# Frame Rate: 120.000 fps
#------------------------------------------------------
:FULLY-SPECIFIED
:DEGREES
1234
root 16.604739 35.769741 -20.803105 -177.107223 2.488257 -175.891533
Spine -5.803713 7.256519 2.606483
Head 6.104354 -4.128813 3.515604
LeftShoulder -6.289990 -23.473625 8.395045
LeftArm -0.842922 3.703329 -28.304244
LeftForeArm 3.872571 -0.000000 0.325252
LeftHand -4.093329 -0.000000 -0.976963
LeftHandThumb1 -26.253704 0.000000 33.147579
RightShoulder -15.131195 -13.352534 2.710503
RightArm 14.096882 23.249268 33.755117
RightForeArm -35.356278 -0.000000 5.457181
RightHand -0.143816 -0.000000 10.424082
RightHandThumb1 -24.326973 -0.000000 -32.862282
LeftUpLeg 5.925067 9.329735 2.526111
LeftLeg -6.835398 -0.000000 0.000000
LeftFoot -20.726431 28.044234 -12.020162
LeftToeBase 25.318667 -0.000000 -0.000000
RightUpLeg -2.087777 -10.427067 -3.540632
RightLeg 9.192754 -0.000000 -0.000000
RightFoot -19.176782 -13.793321 22.617709
RightToeBase 12.799557 -0.000000 -0.000000
1235
root 16.632893 35.754660 -20.827177 -177.120601 2.476106 -176.100546
Spine -5.969674 7.162365 2.282277
Head 6.006684 -4.131941 3.703710
LeftShoulder -6.202055 -23.763321 8.815172
LeftArm -0.591845 3.607447 -27.528897
LeftForeArm 4.161135 -0.000000 0.310640
LeftHand -4.222119 -0.000000 -0.977089
LeftHandThumb1 -26.253704 0.000000 33.147579
RightShoulder -15.138204 -13.233668 2.456825
RightArm 13.857230 23.713203 33.035727
RightForeArm -35.443563 -0.000000 5.379633
RightHand -0.210913 -0.000000 10.286863
RightHandThumb1 -24.326973 -0.000000 -32.862282
LeftUpLeg 5.965304 9.213148 2.367098
LeftLeg -6.816081 -0.000000 0.000000
LeftFoot -20.806150 28.086320 -12.154994
LeftToeBase 25.344166 -0.000000 -0.000000
RightUpLeg -1.880267 -10.206322 -3.594992
RightLeg 9.020916 -0.000000 -0.000000
RightFoot -18.572130 -13.992535 22.273213
RightToeBase 13.368068 -0.000000 -0.000000
1236
root 16.666706 35.736566 -20.846969 -177.123917 2.431768 -176.338031
Spine -6.141606 7.082363 1.900612
Head 5.857716 -4.241360 3.915242
LeftShoulder -6.018255 -24.097421 9.232241
LeftArm -0.432830 3.459058 -26.755880
LeftForeArm 4.414158 -0.000000 0.329251
LeftHand -4.342955 -0.000000 -1.062645
LeftHandThumb1 -26.253704 0.000000 33.147579
RightShoulder -15.164809 -13.068611 2.191701
RightArm 13.583257 24.178245 32.370942
RightForeArm -35.466083 0.000000 5.296879
RightHand -0.259030 -0.000000 10.181160
RightHandThumb1 -24.326973 -0.000000 -32.862282
LeftUpLeg 5.953508 9.125858 2.191120
LeftLeg -6.739591 -0.000000 0.000000
LeftFoot -20.915299 28.055069 -12.284401
LeftToeBase 25.363358 -0.000000 -0.000000
RightUpLeg -1.695819 -10.190930 -3.683394
RightLeg 8.796822 -0.000000 -0.000000
RightFoot -18.215879 -14.231622 21.489066
RightToeBase 13.819448 -0.000000 -0.000000
1237
root 16.695340 35.719846 -20.867526 -177.109287 2.354348 -176.588514
Spine -6.343427 6.888345 1.549814
Head 5.789347 -4.201937 4.057146
LeftShoulder -5.919681 -24.406402 9.582590
LeftArm -0.291612 3.394809 -25.944608
LeftForeArm 4.473885 -0.000000 0.390075
LeftHand -4.527566 -0.000000 -0.917534
LeftHandThumb1 -26.253704 0.000000 33.147579
RightShoulder -15.097883 -12.950599 1.897057
RightArm 13.300490 24.466958 31.653227
RightForeArm -35.329931 0.000000 5.204459
RightHand -0.305483 0.000000 10.060272
RightHandThumb1 -24.326973 -0.000000 -32.862282
LeftUpLeg 5.905089 9.028064 1.990631
LeftLeg -6.640729 -0.000000 0.000000
LeftFoot -21.084882 27.984362 -12.474688
LeftToeBase 25.518217 -0.000000 -0.000000
RightUpLeg -1.522352 -10.390603 -3.819779
RightLeg 8.453811 -0.000000 -0.000000
RightFoot -18.454444 -14.614422 21.183814
RightToeBase 14.889593 -0.000000 -0.000000
1238
root 16.727062 35.699219 -20.898083 -177.122016 2.272781 -176.884947
Spine -6.540056 6.722184 1.117713
Head 5.716954 -4.220885 4.240128
LeftShoulder -5.847752 -24.646729 9.987047
LeftArm -0.062925 3.225846 -25.166091
LeftForeArm 4.832000 0.000000 0.325834
LeftHand -4.421930 -0.000000 -0.928422
LeftHandThumb1 -26.253704 0.000000 33.147579
RightShoulder -15.087854 -12.799316 1.615130
RightArm 13.059693 24.771233 30.991933
RightForeArm -35.189171 -0.000000 5.041231
RightHand -0.398961 -0.000000 9.963394
RightHandThumb1 -24.326973 -0.000000 -32.862282
LeftUpLeg 5.914043 8.960211 1.761560
LeftLeg -6.559701 -0.000000 0.000000
LeftFoot -21.189559 27.885889 -12.605967
LeftToeBase 25.630840 -0.000000 -0.000000
RightUpLeg -1.249981 -10.636072 -4.015638
RightLeg 7.899005 -0.000000 -0.000000
RightFoot -18.790397 -15.601580 21.309840
RightToeBase 16.528870 -0.000000 -0.000000
